<?xml version="1.0" standalone="no"?>
<!DOCTYPE svg PUBLIC "-//W3C//DTD SVG 20010904//EN"
 "http://www.w3.org/TR/2001/REC-SVG-20010904/DTD/svg10.dtd">
<svg version="1.0" xmlns="http://www.w3.org/2000/svg"
 width="1000.000000pt" height="275.000000pt" viewBox="0 0 1000.000000 275.000000"
 preserveAspectRatio="xMidYMid meet">
<metadata>
Created by potrace 1.15, written by Peter Selinger 2001-2017
</metadata>
<g transform="translate(0.000000,275.000000) scale(0.100000,-0.100000)"
fill="#000000" stroke="none">
<path d="M249 2477 c-40 -27 -113 -128 -128 -178 -8 -25 -11 -357 -11 -1073
l0 -1036 220 0 220 0 0 30 c0 23 4 30 20 30 20 0 20 7 21 683 l0 682 692 -697
c381 -383 706 -704 724 -712 43 -21 154 -21 196 0 18 9 357 341 755 737 l722
722 0 -738 0 -737 220 0 220 0 0 30 c0 23 4 30 20 30 20 0 20 7 20 1048 l0
1048 -26 52 c-36 72 -72 96 -156 100 -54 3 -76 0 -110 -17 -29 -15 -311 -288
-882 -855 l-840 -833 -830 835 c-584 586 -843 840 -871 853 -59 27 -153 25
-196 -4z"/>
<path d="M4300 2450 c0 -23 -4 -30 -20 -30 -20 0 -20 -7 -20 -1110 l0 -1110
220 0 220 0 0 30 c0 23 4 30 20 30 20 0 20 7 20 345 l0 345 113 0 112 0 689
-375 690 -375 583 0 583 0 0 30 c0 23 4 30 20 30 20 0 20 7 20 505 l0 505 860
0 860 0 0 30 c0 23 4 30 20 30 19 0 20 7 20 225 l0 225 -880 0 -880 0 0 95 0
95 1125 0 1125 0 0 30 c0 23 4 30 20 30 19 0 20 7 20 225 l0 225 -1370 0
-1370 0 0 -30 c0 -23 -4 -30 -20 -30 -20 0 -20 -7 -20 -1025 0 -564 -3 -1025
-6 -1025 -4 0 -247 127 -541 283 l-535 282 219 6 c250 7 297 12 411 45 199 58
314 148 405 317 22 41 22 48 22 422 l0 380 -27 58 c-66 140 -176 220 -378 273
-153 40 -265 44 -1317 44 l-1013 0 0 -30z m2030 -494 c112 -17 178 -43 209
-82 20 -26 21 -36 19 -203 l-3 -176 -65 -22 -65 -22 -842 -1 -843 0 0 260 0
260 748 0 c598 0 766 -3 842 -14z"/>
</g>
</svg>
